<?xml version="1.0" encoding="UTF-8"?><svg xmlns="http://www.w3.org/2000/svg" width="100" height="100" viewBox="0 0 100 100" fill="none" version="1.2" baseProfile="tiny-ps"><title>small_bimi</title><path d="M42.1559 60.1106H6.09756C2.72997 60.1106 0 57.2357 0 53.6893V6.43403C0 0.371085 7.24437 -2.31435 10.8507 2.41177L46.909 49.667C50.1155 53.8692 47.2749 60.1106 42.1559 60.1106Z" fill="#4E816B"></path><path d="M57.8441 60.1106H93.9024C97.27 60.1106 100 57.2357 100 53.6893V6.43403C100 0.371085 92.7556 -2.31435 89.1493 2.41177L53.091 49.667C49.8845 53.8692 52.7251 60.1106 57.8441 60.1106Z" fill="#D06235"></path><path d="M41.8717 63.9634H6.09756C2.72997 63.9634 0 66.8383 0 70.3847V93.5685C0 98.5921 5.23065 101.67 9.29327 99.0373L45.0674 75.8535C50.3037 72.4601 48.02 63.9634 41.8717 63.9634Z" fill="#3C5A90"></path><path d="M58.1283 63.9634H93.9024C97.27 63.9634 100 66.8383 100 70.3847V93.5685C100 98.5921 94.7693 101.67 90.7067 99.0373L54.9326 75.8535C49.6963 72.4601 51.98 63.9634 58.1283 63.9634Z" fill="#FABD14"></path></svg>